# xmcd
#
# Track frame offsets:
#	150
#	15525
#	31526
#	43135
#	58196
#	76074
#	97634
#	111966
#	123121
#	141758
#	155603
#	168846
#
# Disc length: 2458 seconds
# Revision: 0
# Processed by: cddbd v1.5.2PL0 Copyright (c) Steve Scherf et al.
# Submitted via: dBpowerAMP V12.0
#
DISCID=8509980c
DTITLE=F.A.K.S - Fri og litt farlig
DYEAR=2010
DGENRE=Danseband
TTITLE0=Fri og litt farlig
TTITLE1=Heimover
TTITLE2=Feitj å baill
TTITLE3=Slåttetid
TTITLE4=Evig lengsel
TTITLE5=Borte va ho
TTITLE6=Gje gass gje faen
TTITLE7=Dagen derpå
TTITLE8=Grensen
TTITLE9=Lensmainn
TTITLE10=Tredje runde i baren
TTITLE11=Høstjakta
EXTD=
EXTT0=
EXTT1=
EXTT2=
EXTT3=
EXTT4=
EXTT5=
EXTT6=
EXTT7=
EXTT8=
EXTT9=
EXTT10=
EXTT11=
PLAYORDER=
